<svg xmlns="http://www.w3.org/2000/svg" xmlns:xlink="http://www.w3.org/1999/xlink" width="500" zoomAndPan="magnify" viewBox="0 0 375 374.999991" height="500" preserveAspectRatio="xMidYMid meet" version="1.0"><defs><g/></defs><rect x="-37.5" width="450" fill="#ffffff" y="-37.499999" height="449.999989" fill-opacity="1"/><rect x="-37.5" width="450" fill="#000000" y="-37.499999" height="449.999989" fill-opacity="1"/><rect x="-37.5" width="450" fill="#ffffff" y="-37.499999" height="449.999989" fill-opacity="1"/><rect x="-37.5" width="450" fill="#000000" y="-37.499999" height="449.999989" fill-opacity="1"/><g fill="#ffffff" fill-opacity="1"><g transform="translate(80.169206, 169.190247)"><g><path d="M 34.175781 -22.039062 C 34.175781 -28.699219 28.480469 -32.640625 18.316406 -32.640625 C 8.71875 -32.640625 2.980469 -28.042969 2.980469 -22.082031 C 2.980469 -16.695312 6.921875 -13.976562 15.027344 -13.144531 L 20.636719 -12.574219 C 24.929688 -12.136719 26.902344 -11.566406 26.902344 -9.113281 C 26.902344 -6.660156 24.359375 -5.214844 19.628906 -5.214844 C 13.496094 -5.214844 10.339844 -7.140625 10.382812 -10.996094 L 2.234375 -10.996094 C 2.234375 -3.066406 7.929688 0.832031 18.664062 0.832031 C 29.839844 0.832031 35.578125 -3.023438 35.578125 -9.988281 C 35.578125 -15.597656 31.722656 -18.445312 23.746094 -19.324219 L 17.832031 -19.9375 C 13.277344 -20.417969 11.390625 -20.769531 11.390625 -23.132812 C 11.390625 -25.367188 13.84375 -26.769531 18.445312 -26.769531 C 23.308594 -26.769531 25.894531 -25.195312 26.246094 -22.039062 Z M 34.175781 -22.039062 "/></g></g></g><g fill="#ffffff" fill-opacity="1"><g transform="translate(123.66946, 169.190247)"><g><path d="M 11.523438 -31.808594 L 3.550781 -31.808594 L 3.550781 0 L 11.523438 0 L 11.523438 -10.996094 L 15.554688 -14.589844 L 27.121094 0 L 36.890625 0 L 21.164062 -19.453125 L 35.183594 -31.808594 L 24.929688 -31.808594 L 11.523438 -19.585938 Z M 11.523438 -31.808594 "/></g></g></g><g fill="#ffffff" fill-opacity="1"><g transform="translate(166.249816, 169.190247)"><g><path d="M 11.65625 -31.808594 L 3.679688 -31.808594 L 3.679688 0 L 11.65625 0 Z M 11.65625 -31.808594 "/></g></g></g><g fill="#ffffff" fill-opacity="1"><g transform="translate(187.27823, 169.190247)"><g><path d="M 11.523438 -31.808594 L 3.550781 -31.808594 L 3.550781 0 L 27.867188 0 L 27.867188 -6.527344 L 11.523438 -6.527344 Z M 11.523438 -31.808594 "/></g></g></g><g fill="#ffffff" fill-opacity="1"><g transform="translate(222.148948, 169.190247)"><g><path d="M 11.523438 -31.808594 L 3.550781 -31.808594 L 3.550781 0 L 27.867188 0 L 27.867188 -6.527344 L 11.523438 -6.527344 Z M 11.523438 -31.808594 "/></g></g></g><g fill="#ffffff" fill-opacity="1"><g transform="translate(257.019665, 169.190247)"><g><path d="M 34.175781 -22.039062 C 34.175781 -28.699219 28.480469 -32.640625 18.316406 -32.640625 C 8.71875 -32.640625 2.980469 -28.042969 2.980469 -22.082031 C 2.980469 -16.695312 6.921875 -13.976562 15.027344 -13.144531 L 20.636719 -12.574219 C 24.929688 -12.136719 26.902344 -11.566406 26.902344 -9.113281 C 26.902344 -6.660156 24.359375 -5.214844 19.628906 -5.214844 C 13.496094 -5.214844 10.339844 -7.140625 10.382812 -10.996094 L 2.234375 -10.996094 C 2.234375 -3.066406 7.929688 0.832031 18.664062 0.832031 C 29.839844 0.832031 35.578125 -3.023438 35.578125 -9.988281 C 35.578125 -15.597656 31.722656 -18.445312 23.746094 -19.324219 L 17.832031 -19.9375 C 13.277344 -20.417969 11.390625 -20.769531 11.390625 -23.132812 C 11.390625 -25.367188 13.84375 -26.769531 18.445312 -26.769531 C 23.308594 -26.769531 25.894531 -25.195312 26.246094 -22.039062 Z M 34.175781 -22.039062 "/></g></g></g><g fill="#ffffff" fill-opacity="1"><g transform="translate(93.62233, 212.690244)"><g><path d="M 29.3125 -22.566406 C 29.3125 -29.003906 24.800781 -32.640625 16.648438 -32.640625 C 7.84375 -32.640625 3.242188 -29.003906 3.242188 -23.046875 C 3.242188 -18.226562 6.222656 -15.730469 12.445312 -14.632812 L 20.285156 -13.230469 C 24.054688 -12.574219 25.761719 -11.347656 25.761719 -8.71875 C 25.761719 -5.390625 22.695312 -3.328125 16.957031 -3.328125 C 10.382812 -3.328125 7.140625 -5.738281 6.964844 -10.734375 L 2.191406 -10.734375 C 2.191406 -3.109375 7.1875 0.832031 16.695312 0.832031 C 25.632812 0.832031 30.496094 -2.980469 30.496094 -9.113281 C 30.496094 -14.457031 27.296875 -16.472656 20.59375 -17.746094 L 13.625 -19.101562 C 9.769531 -19.847656 7.972656 -20.855469 7.972656 -23.441406 C 7.972656 -26.640625 10.777344 -28.480469 16.300781 -28.480469 C 21.820312 -28.480469 24.535156 -26.640625 24.84375 -22.566406 Z M 29.3125 -22.566406 "/></g></g></g><g fill="#ffffff" fill-opacity="1"><g transform="translate(131.953621, 212.690244)"><g><path d="M 0 -31.808594 L 0 -27.648438 L 12.136719 -27.648438 L 12.136719 0 L 16.648438 0 L 16.648438 -27.648438 L 28.785156 -27.648438 L 28.785156 -31.808594 Z M 0 -31.808594 "/></g></g></g><g fill="#ffffff" fill-opacity="1"><g transform="translate(166.430095, 212.690244)"><g><path d="M 0 0 L 4.777344 0 L 8.980469 -9.070312 L 25.238281 -9.070312 L 29.269531 0 L 33.957031 0 L 19.804688 -31.808594 L 15.117188 -31.808594 Z M 10.867188 -13.230469 L 17.308594 -26.769531 L 23.398438 -13.230469 Z M 10.867188 -13.230469 "/></g></g></g><g fill="#ffffff" fill-opacity="1"><g transform="translate(206.07554, 212.690244)"><g><path d="M 35.402344 -12.3125 L 30.714844 -12.3125 C 29.96875 -6.964844 25.589844 -3.417969 19.324219 -3.417969 C 11.261719 -3.417969 6.570312 -8.105469 6.570312 -15.90625 C 6.570312 -23.703125 11.214844 -28.390625 19.277344 -28.390625 C 25.367188 -28.390625 29.488281 -25.324219 30.363281 -20.242188 L 35.050781 -20.242188 C 34.394531 -27.601562 28.21875 -32.640625 19.324219 -32.640625 C 8.457031 -32.640625 1.882812 -26.027344 1.882812 -15.90625 C 1.882812 -5.785156 8.457031 0.832031 19.277344 0.832031 C 28.304688 0.832031 34.570312 -4.382812 35.402344 -12.3125 Z M 35.402344 -12.3125 "/></g></g></g><g fill="#ffffff" fill-opacity="1"><g transform="translate(248.743506, 212.690244)"><g><path d="M 8.148438 -31.808594 L 3.636719 -31.808594 L 3.636719 0 L 8.148438 0 L 8.148438 -10.558594 L 14.371094 -15.90625 L 27.253906 0 L 32.554688 0 L 17.394531 -18.578125 L 32.511719 -31.808594 L 26.726562 -31.808594 L 8.148438 -15.464844 Z M 8.148438 -31.808594 "/></g></g></g><g fill="#ffffff" fill-opacity="1"><g transform="translate(188.676584, 240.206548)"><g/></g></g></svg>