<svg xmlns="http://www.w3.org/2000/svg" xmlns:xlink="http://www.w3.org/1999/xlink" width="500" zoomAndPan="magnify" viewBox="0 0 375 374.999991" height="500" preserveAspectRatio="xMidYMid meet" version="1.0"><defs><g/></defs><g fill="#ffffff" fill-opacity="1"><g transform="translate(159.410151, 201.749987)"><g><path d="M 11.703125 0.234375 C 9.140625 0.234375 6.898438 -0.316406 4.984375 -1.421875 C 3.078125 -2.523438 2.050781 -4.140625 1.90625 -6.265625 L 5.65625 -6.265625 C 5.757812 -5.585938 6.019531 -5 6.4375 -4.5 C 6.851562 -4.007812 7.375 -3.632812 8 -3.375 C 8.625 -3.125 9.238281 -2.945312 9.84375 -2.84375 C 10.445312 -2.75 11.078125 -2.703125 11.734375 -2.703125 C 12.671875 -2.703125 13.414062 -2.71875 13.96875 -2.75 C 14.53125 -2.789062 15.125 -2.875 15.75 -3 C 16.375 -3.125 16.847656 -3.304688 17.171875 -3.546875 C 17.503906 -3.785156 17.773438 -4.128906 17.984375 -4.578125 C 18.203125 -5.023438 18.3125 -5.578125 18.3125 -6.234375 C 18.3125 -6.535156 18.234375 -6.828125 18.078125 -7.109375 C 17.929688 -7.390625 17.679688 -7.628906 17.328125 -7.828125 C 16.972656 -8.023438 16.644531 -8.203125 16.34375 -8.359375 C 16.039062 -8.515625 15.601562 -8.664062 15.03125 -8.8125 C 14.457031 -8.96875 14.03125 -9.082031 13.75 -9.15625 C 13.476562 -9.226562 13.023438 -9.328125 12.390625 -9.453125 C 11.753906 -9.585938 11.375 -9.664062 11.25 -9.6875 C 10.1875 -9.894531 9.273438 -10.097656 8.515625 -10.296875 C 7.753906 -10.503906 6.910156 -10.796875 5.984375 -11.171875 C 5.054688 -11.546875 4.304688 -11.960938 3.734375 -12.421875 C 3.171875 -12.878906 2.691406 -13.472656 2.296875 -14.203125 C 1.898438 -14.941406 1.703125 -15.769531 1.703125 -16.6875 C 1.703125 -18.5625 2.4375 -20.003906 3.90625 -21.015625 C 5.5625 -22.097656 8.132812 -22.640625 11.625 -22.640625 C 12.84375 -22.640625 13.988281 -22.523438 15.0625 -22.296875 C 16.144531 -22.078125 17.144531 -21.734375 18.0625 -21.265625 C 18.988281 -20.796875 19.742188 -20.140625 20.328125 -19.296875 C 20.910156 -18.460938 21.253906 -17.503906 21.359375 -16.421875 L 17.75 -16.421875 C 17.644531 -18.617188 15.601562 -19.71875 11.625 -19.71875 C 7.46875 -19.71875 5.390625 -18.707031 5.390625 -16.6875 C 5.390625 -16.125 5.570312 -15.625 5.9375 -15.1875 C 6.3125 -14.757812 6.90625 -14.394531 7.71875 -14.09375 C 8.53125 -13.789062 9.296875 -13.550781 10.015625 -13.375 C 10.734375 -13.195312 11.710938 -12.984375 12.953125 -12.734375 C 18.984375 -11.617188 22 -9.523438 22 -6.453125 C 22 -4.253906 21.179688 -2.585938 19.546875 -1.453125 C 17.910156 -0.328125 15.296875 0.234375 11.703125 0.234375 Z M 11.703125 0.234375 "/></g></g></g><g fill="#ffffff" fill-opacity="1"><g transform="translate(183.117307, 201.749987)"><g><path d="M 15.046875 -22.234375 L 23.40625 0 L 19.5 0 L 17.515625 -5.203125 L 6.65625 -5.203125 L 4.671875 0 L 0.765625 0 L 9.125 -22.234375 Z M 7.75 -8.125 L 16.421875 -8.125 L 12.078125 -19.53125 Z M 7.75 -8.125 "/></g></g></g><g fill="#ffffff" fill-opacity="1"><g transform="translate(207.280372, 201.749987)"><g><path d="M 2.3125 -22.234375 L 6 -22.234375 L 6 0 L 2.3125 0 Z M 2.3125 -22.234375 "/></g></g></g></svg>