<svg xmlns="http://www.w3.org/2000/svg" xmlns:xlink="http://www.w3.org/1999/xlink" width="500" zoomAndPan="magnify" viewBox="0 0 375 374.999991" height="500" preserveAspectRatio="xMidYMid meet" version="1.0"><defs><g/></defs><g fill="#ffffff" fill-opacity="1"><g transform="translate(124.212886, 219.872638)"><g><path d="M 26.359375 0.515625 C 20.597656 0.515625 15.5625 -0.722656 11.25 -3.203125 C 6.945312 -5.691406 4.625 -9.332031 4.28125 -14.125 L 12.75 -14.125 C 12.976562 -12.582031 13.5625 -11.253906 14.5 -10.140625 C 15.445312 -9.023438 16.617188 -8.179688 18.015625 -7.609375 C 19.410156 -7.046875 20.789062 -6.648438 22.15625 -6.421875 C 23.53125 -6.191406 24.960938 -6.078125 26.453125 -6.078125 C 28.554688 -6.078125 30.234375 -6.117188 31.484375 -6.203125 C 32.742188 -6.285156 34.070312 -6.46875 35.46875 -6.75 C 36.875 -7.039062 37.945312 -7.457031 38.6875 -8 C 39.425781 -8.539062 40.035156 -9.3125 40.515625 -10.3125 C 41.003906 -11.3125 41.25 -12.550781 41.25 -14.03125 C 41.25 -14.71875 41.078125 -15.375 40.734375 -16 C 40.398438 -16.632812 39.832031 -17.175781 39.03125 -17.625 C 38.226562 -18.082031 37.484375 -18.484375 36.796875 -18.828125 C 36.117188 -19.171875 35.132812 -19.515625 33.84375 -19.859375 C 32.5625 -20.203125 31.609375 -20.457031 30.984375 -20.625 C 30.359375 -20.800781 29.332031 -21.03125 27.90625 -21.3125 C 26.476562 -21.59375 25.617188 -21.765625 25.328125 -21.828125 C 22.929688 -22.285156 20.878906 -22.738281 19.171875 -23.1875 C 17.460938 -23.644531 15.566406 -24.300781 13.484375 -25.15625 C 11.398438 -26.019531 9.710938 -26.960938 8.421875 -27.984375 C 7.140625 -29.015625 6.054688 -30.359375 5.171875 -32.015625 C 4.296875 -33.671875 3.859375 -35.523438 3.859375 -37.578125 C 3.859375 -41.796875 5.507812 -45.046875 8.8125 -47.328125 C 12.519531 -49.785156 18.3125 -51.015625 26.1875 -51.015625 C 28.925781 -51.015625 31.507812 -50.753906 33.9375 -50.234375 C 36.363281 -49.722656 38.617188 -48.941406 40.703125 -47.890625 C 42.785156 -46.835938 44.484375 -45.367188 45.796875 -43.484375 C 47.109375 -41.597656 47.878906 -39.425781 48.109375 -36.96875 L 39.96875 -36.96875 C 39.738281 -41.9375 35.144531 -44.421875 26.1875 -44.421875 C 16.832031 -44.421875 12.15625 -42.140625 12.15625 -37.578125 C 12.15625 -36.316406 12.566406 -35.203125 13.390625 -34.234375 C 14.222656 -33.265625 15.550781 -32.4375 17.375 -31.75 C 19.195312 -31.070312 20.921875 -30.53125 22.546875 -30.125 C 24.179688 -29.726562 26.394531 -29.242188 29.1875 -28.671875 C 42.769531 -26.160156 49.5625 -21.453125 49.5625 -14.546875 C 49.5625 -9.585938 47.71875 -5.835938 44.03125 -3.296875 C 40.351562 -0.753906 34.460938 0.515625 26.359375 0.515625 Z M 26.359375 0.515625 "/></g></g></g><g fill="#ffffff" fill-opacity="1"><g transform="translate(177.616028, 219.872638)"><g><path d="M 33.890625 -50.078125 L 52.71875 0 L 43.90625 0 L 39.453125 -11.71875 L 14.984375 -11.71875 L 10.53125 0 L 1.71875 0 L 20.546875 -50.078125 Z M 17.46875 -18.3125 L 36.96875 -18.3125 L 27.21875 -44 Z M 17.46875 -18.3125 "/></g></g></g><g fill="#ffffff" fill-opacity="1"><g transform="translate(232.04615, 219.872638)"><g><path d="M 5.21875 -50.078125 L 13.53125 -50.078125 L 13.53125 0 L 5.21875 0 Z M 5.21875 -50.078125 "/></g></g></g></svg>